<?xml version="1.0" encoding="UTF-8" standalone="no"?>
<svg
   xmlns:dc="http://purl.org/dc/elements/1.1/"
   xmlns:cc="http://creativecommons.org/ns#"
   xmlns:rdf="http://www.w3.org/1999/02/22-rdf-syntax-ns#"
   xmlns:svg="http://www.w3.org/2000/svg"
   xmlns="http://www.w3.org/2000/svg"
   xmlns:xlink="http://www.w3.org/1999/xlink"
   xmlns:sodipodi="http://sodipodi.sourceforge.net/DTD/sodipodi-0.dtd"
   xmlns:inkscape="http://www.inkscape.org/namespaces/inkscape"
   viewBox="0 0 128 128"
   id="svg2"
   version="1.1"
   inkscape:version="0.91 r13725"
   sodipodi:docname="user-none.svg">
  <metadata
     id="metadata20">
    <rdf:RDF>
      <cc:Work
         rdf:about="">
        <dc:format>image/svg+xml</dc:format>
        <dc:type
           rdf:resource="http://purl.org/dc/dcmitype/StillImage" />
      </cc:Work>
    </rdf:RDF>
  </metadata>
  <sodipodi:namedview
     pagecolor="#ffffff"
     bordercolor="#666666"
     borderopacity="1"
     objecttolerance="10"
     gridtolerance="10"
     guidetolerance="10"
     inkscape:pageopacity="0"
     inkscape:pageshadow="2"
     inkscape:window-width="3200"
     inkscape:window-height="1679"
     id="namedview18"
     showgrid="false"
     inkscape:zoom="1.84375"
     inkscape:cx="64"
     inkscape:cy="64"
     inkscape:window-x="0"
     inkscape:window-y="0"
     inkscape:window-maximized="1"
     inkscape:current-layer="svg2" />
  <defs
     id="defs4">
    <style
       id="current-color-scheme"
       type="text/css">
      .ColorScheme-Text {
        color:#4d4d4d;
      }
      .ColorScheme-Background {
        color:#eff0f1;
      }
      .ColorScheme-Highlight {
        color:#3daee9;
      }
      .ColorScheme-ViewText {
        color:#31363b;
      }
      .ColorScheme-ViewBackground {
        color:#fcfcfc;
      }
      .ColorScheme-ViewHover {
        color:#93cee9;
      }
      .ColorScheme-ViewFocus{
        color:#3daee9;
      }
      .ColorScheme-ButtonText {
        color:#31363b;
      }
      .ColorScheme-ButtonBackground {
        color:#eff0f1;
      }
      .ColorScheme-ButtonHover {
        color:#93cee9;
      }
      .ColorScheme-ButtonFocus{
        color:#3daee9;
      }
      </style>
    <linearGradient
       id="linearGradient4213"
       inkscape:collect="always">
      <stop
         id="stop4215"
         offset="0"
         style="stop-color:#000000;stop-opacity:1;" />
      <stop
         id="stop4217"
         offset="1"
         style="stop-color:#000000;stop-opacity:0;" />
    </linearGradient>
    <clipPath
       clipPathUnits="userSpaceOnUse"
       id="clipPath5154">
      <rect
         rx="2.0000384"
         ry="2.0000021"
         y="952.3623"
         x="5.1822917e-05"
         height="100"
         width="100"
         id="rect5156"
         style="opacity:1;fill:#000000;fill-opacity:1;stroke:none;stroke-opacity:1" />
    </clipPath>
    <linearGradient
       inkscape:collect="always"
       xlink:href="#linearGradient4213"
       id="linearGradient6632"
       gradientUnits="userSpaceOnUse"
       x1="60.000046"
       y1="982.36224"
       x2="115"
       y2="1037.3622"
       gradientTransform="matrix(1.2800007,0,0,1.28,-7e-5,-1219.0238)" />
  </defs>
  <g
     transform="translate(0,-924.36216)"
     id="g12">
    <path
       style="color:#3daee9;fill:currentColor;fill-opacity:1;stroke:none"
       d="M 0,0 0,128 128,128 128,0 0,0 Z"
       transform="translate(0,924.36216)"
       class="ColorScheme-Highlight"
       id="rect5879"
       inkscape:connector-curvature="0" />
    <g
       style="display:inline"
       clip-path="url(#clipPath5154)"
       inkscape:label="Layer 1"
       id="g6584"
       transform="matrix(1.2800007,0,0,1.28,-7e-5,-294.66159)">
      <path
         style="opacity:0.2;fill:url(#linearGradient6632);fill-opacity:1;fill-rule:evenodd;stroke:none;stroke-width:1px;stroke-linecap:butt;stroke-linejoin:miter;stroke-opacity:1"
         d="M 82.814453,19.794922 82.251953,44.957031 54.541016,84.882812 66.505859,99.039062 52.982422,111.07422 68.798828,128 128,128 128,62.480469 82.814453,19.794922 Z"
         transform="matrix(0.78124957,0,0,0.78125,5.468747e-5,952.3623)"
         id="path6588"
         inkscape:connector-curvature="0" />
      <path
         style="color:#eff0f1;fill:currentColor;fill-opacity:1;stroke:none"
         d="M 63.833984,14 C 54.37899,14 45.434032,16.226425 37,20.679688 l 4.195312,9.457031 c 4.217017,-2.028219 8.011153,-3.4834 11.384766,-4.365235 3.418003,-0.881834 6.903907,-1.322265 10.455078,-1.322265 5.326758,0 9.409063,1.168998 12.25,3.505859 2.840937,2.336861 4.261719,5.687655 4.261719,10.052734 0,2.336861 -0.310186,4.386723 -0.931641,6.150391 -0.621455,1.763669 -1.686064,3.527347 -3.195312,5.291016 -1.509248,1.763668 -4.683014,4.674031 -9.521484,8.730469 -4.261406,3.527335 -7.237022,6.945074 -8.923829,10.251953 -1.686806,3.262786 -2.529296,7.516758 -2.529297,12.763671 l 0,3.638672 9.521485,0 0,-2.25 c 0,-4.012345 0.710391,-7.231206 2.130859,-9.65625 1.464858,-2.469135 4.394488,-5.576423 8.789063,-9.324218 5.371147,-4.453263 8.945117,-7.804058 10.720703,-10.052735 1.819975,-2.248677 3.172754,-4.62935 4.060547,-7.142578 C 90.555762,43.894976 91,41.006927 91,37.744141 91,30.24855 88.580658,24.427824 83.742188,20.283203 78.903716,16.094491 72.268017,14 63.833984,14 Z m -4.0625,81.679688 c -5.637484,-10e-7 -8.455078,3.019986 -8.455078,9.060542 0,3.26279 0.776441,5.6231 2.330078,7.07813 1.598028,1.45503 3.63918,2.18164 6.125,2.18164 2.53021,0 4.551299,-0.79356 6.060547,-2.38086 1.509248,-1.63139 2.263672,-3.92476 2.263672,-6.87891 0,-2.99823 -0.754424,-5.246971 -2.263672,-6.746089 -1.464858,-1.54321 -3.485947,-2.314453 -6.060547,-2.314453 z"
         transform="matrix(0.78124957,0,0,0.78125,5.468747e-5,952.3623)"
         class="ColorScheme-Background"
         id="text8241"
         inkscape:connector-curvature="0" />
    </g>
  </g>
</svg>
