<svg id="svg381" version="1.1" viewBox="0 0 508 338" xmlns="http://www.w3.org/2000/svg">
    <g id="g387">
        <path style="fill:#000000" id="path391" d="m370.4846 276.33978c-13.21154-3.56318-23.98835-16.87652-23.93578-29.56952 0.0214-5.15441 2.50471-14.92904 5.5138-21.70261 4.73504-10.65873 12.47169-31.63198 12.45611-33.76722-0.0209-2.86625-0.7406-3.7243-6.29294-7.50279-5.10224-3.47218-6.71902-6.24737-6.64786-11.41098 0.12534-9.09442 5.77682-15.65809 18.4064-21.37732 9.23378-4.18146 16.71663-5.29087 35.74809-5.30003 14.15444-7e-3 16.51484 0.24948 24 2.60583 26.19439 8.24608 37.10399 17.39328 39.79871 33.36938 2.24883 13.33257-1.19609 49.44281-6.15916 64.56136-2.69644 8.21391-9.33846 15.72641-15.33793 17.34806-2.2 0.59466-11.425 3.10408-20.5 5.57648-31.14727 8.48581-45.48675 10.28784-57.04944 7.16936z"/>
        <path style="fill:#000000" id="path485" d="m383.53404 140.99805c-3.02382-1.10029-7.05594-5.79455-7.94412-9.24866-0.50173-1.9512-1.41823-7.14763-2.03667-11.54763-2.75771-19.62005-4.35195-27.239352-6.53215-31.218742-1.27122-2.3203-2.85756-5.920302-3.52518-7.999997-0.66763-2.079694-2.13923-5.806263-3.27024-8.281263s-2.23873-7.2-2.46161-10.5c-0.52796-7.817031 1.99395-11.861094 9.84734-15.790884 4.79099-2.397386 5.98944-2.635156 8.5-1.686382 8.07159 3.050363 11.96209 11.968943 12.9695 29.73126 0.60759 10.712886 3.82743 29.652448 7.59046 44.648218 4.12251 16.42831 2.16268 22.678-7.06164 22.51884-2.51663-0.0434-5.25069-0.32456-6.07569-0.62476z"/>
        <path style="fill:#000000" id="path483" d="m417.24711 139.77261c-2.04886-2.43494-2.57828-4.4174-3.13783-11.75-1.44777-18.97238-4.2474-36.771592-7.73725-49.191029-2.66272-9.475947-2.13316-15.159725 1.79774-19.295108 5.94099-6.250037 10.3312-7.008371 15.77647-2.72512 4.20244 3.305637 4.25497 3.51262 9.10976 35.890405 5.14911 34.340712 2.29681 50.000002-9.10738 50.000002-3.45714 0-4.69035-0.53902-6.70151-2.92915z"/>
        <path style="fill:#000000" id="path477" d="m346.19054 155.55201c-2.65258-2.31916-9.41593-13.33536-20.78683-33.85774-6.68835-12.07124-13.72169-29.947392-14.5567-36.997764-1.09052-9.207737 6.13618-18.833073 13.15085-17.515793 6.26832 1.177123 10.46468 7.827765 14.54399 23.050185 1.16918 4.36295 3.6576 10.866232 5.52981 14.451752 4.88374 9.35293 15.40153 32.73015 17.10542 38.01911 2.76478 8.582 0.14758 13.21414-8.22072 14.54971-3.40635 0.54365-4.52026 0.26386-6.76582-1.69946z"/>
        <path style="fill:#000000" id="path475" d="m460.98968 157.24831c-2.39233-2.39233-2.64076-3.26647-2.2364-7.86892 0.2502-2.8477 1.88463-8.71515 3.63208-13.03877 4.28108-10.59247 6.41596-21.39334 6.25369-31.63886-0.16794-10.603502 0.91841-13.348832 6.31624-15.961882 6.17653-2.99 10.17534-2.68148 13.66509 1.05431 4.86711 5.21025 5.50621 9.27179 3.67435 23.350782-1.23783 9.51348-2.54444 14.7121-5.77352 22.97102-5.92771 15.16113-11.57208 21.99504-19.18715 23.2308-3.07139 0.49841-4.08164 0.16426-6.34438-2.09848z"/>
        <path style="fill:#000000" id="path471" d="m324.80331 252.29158c-2.32691-0.75209-8.17691-3.39729-13-5.87821-10.13229-5.21189-13.49932-6.285-25.60464-8.16047-14.77848-2.28963-21.9324-8.62131-22.09495-19.55548-0.0927-6.23326 1.71686-9.28483 7.09992-11.97326 9.96426-4.97639 18.30315-3.36811 32.37152 6.24331 15.72388 10.74247 14.38386 10.19206 25.33315 10.40563 9.28832 0.18117 10.04492 0.35609 12.75 2.94772 2.3475 2.24904 2.87471 3.59327 2.87015 7.31803-8e-3 6.71534-1.73577 11.81341-5.3175 15.692-3.75709 4.06849-8.17286 4.97592-14.40765 2.96073z"/>
        <path style="fill:#000000" id="path489" d="m109.81867 141.51215c-4.73924-2.65835-5.31288-9.26333-1.93596-22.29094 3.6526-14.09115 7.10845-33.536079 7.14831-40.22117 0.0458-7.685767 2.17157-20.075973 4.28916-25 2.5793-5.997646 9.33362-10.710615 13.42114-9.364885 9.80226 3.227153 14.25868 8.446204 14.25868 16.698751 0 4.360149-4.36349 17.256346-9.53013 28.166094-2.49623 5.270977-3.38127 9.45603-6.51488 30.80664-1.98998 13.55864-3.07057 16.23475-8.01678 19.85376-3.46899 2.53816-9.83505 3.19406-13.11954 1.35171z"/>
        <path style="fill:#000000" id="path487" d="m75.093179 141.42495c-6.644809-5.59124-7.772817-20.76307-3.60034-48.42495 4.79113-31.763293 4.625206-30.986838 7.301347-34.167251 5.193242-6.171817 11.342533-5.744461 17.639846 1.225913 3.056396 3.383065 3.559696 4.625456 3.522075 8.694219-0.024141 2.610915-0.70089 6.547119-1.503887 8.747119-2.181896 5.97782-6.181211 30.18711-7.516487 45.5-1.26344 14.48908-2.585792 18.53625-6.548729 20.04296-3.960968 1.50596-6.00388 1.1503-9.293825-1.61801z"/>
        <path style="fill:#000000" id="path481" d="m149.3872 156.25c-7.7259-4.38745-7.9176-4.68966-6.68933-10.54548 0.61317-2.92331 3.40699-10.12688 6.20849-16.00795 2.8015-5.88106 5.09364-10.96402 5.09364-11.29545s2.24409-5.04348 4.98686-10.47121c2.74278-5.42774 5.91932-13.348195 7.05899-17.601009 4.02318-15.012955 8.24986-21.678053 14.49033-22.849946 6.38944-1.199868 13.39048 7.009689 13.44186 15.762196 0.0464 7.907515-9.79286 31.228679-21.20439 50.258849-2.96829 4.95-6.68874 11.25-8.26767 14-3.53692 6.1602-7.75052 10.5-10.19466 10.5-1.01339 0-3.22924-0.7875-4.92412-1.75z"/>
        <path style="fill:#000000" id="path479" d="m31.113377 158.41701c-4.45945-5.66928-8.241115-19.69797-11.646398-43.20418-1.336892-9.22839-1.426602-12.52354-0.491832-18.065486 2.847207-16.880152 14.29289-25.365894 21.390819-15.85899 1.641023 2.197973 2.216258 5.587647 3.298489 19.436946 0.720957 9.22609 2.190081 21.4997 3.26472 27.2747 3.256714 17.50125 3.08292 21.77769-1.077619 26.51629-5.89114 6.70963-11.384942 8.16367-14.738179 3.90072z"/>
        <path style="fill:#000000" id="path473" d="m169.41844 253.07044c-5.45587-2.31011-9.40226-10.37305-9.41286-19.23155-5e-3 -3.98066 0.44357-5.03904 3.07115-7.25 2.79473-2.35161 3.87515-2.58889 11.78811-2.58889 9.97957 0 11.31608-0.54875 26.14368-10.73429 5.29153-3.63491 11.39154-6.90756 14.63016-7.84905 17.22227-5.00665 30.75286 8.72644 22.51903 22.85605-3.27065 5.61259-14.09107 10.72729-22.69414 10.72729-5.04385 0-13.27872 2.87728-24.46357 8.54763-10.60719 5.37749-17.66138 7.18268-21.58156 5.52281z"/>
        <path style="fill:#000000" id="path469" d="m104.94424 276.56395c-5.612016-1.16945-27.929464-6.98187-46.94424-12.22629-14.589743-4.02397-20.680545-19.31719-23.131599-58.08048-1.911453-30.22952 2.097841-40.224 19.880937-49.55978 15.036318-7.89377 26.834639-10.69448 45.059109-10.69622 16.933963-2e-3 24.991803 1.35656 36.234253 6.10741 8.59279 3.63117 9.88084 4.52811 12.93971 9.01065 2.67696 3.92289 3.48797 6.23557 3.82613 10.91059 0.47031 6.50194 1.12125 5.50488-10.05854 15.40692-1.5125 1.33964-2.75 3.35643-2.75 4.48176 0 1.12534 3.44484 10.71654 7.6552 21.31378 10.71001 26.95651 11.83459 32.38805 8.81269 42.5639-2.05707 6.9269-10.49461 16.0966-17.70743 19.24396-6.57988 2.87118-23.65744 3.64071-33.81622 1.5238z"/>
    </g>
</svg>
