<svg id="svg381" version="1.1" viewBox="0 0 508 338" xmlns="http://www.w3.org/2000/svg">
    <g id="g387">
        <path style="fill:#000000" id="path391" d="m370.4846 276.33978c-13.21154-3.56318-23.98835-16.87652-23.93578-29.56952 0.0214-5.15441 2.50471-14.92904 5.5138-21.70261 4.73504-10.65873 12.47169-31.63198 12.45611-33.76722-0.0209-2.86625-0.7406-3.7243-6.29294-7.50279-5.10224-3.47218-6.71902-6.24737-6.64786-11.41098 0.12534-9.09442 5.77682-15.65809 18.4064-21.37732 9.23378-4.18146 16.71663-5.29087 35.74809-5.30003 14.15444-7e-3 16.51484 0.24948 24 2.60583 26.19439 8.24608 37.10399 17.39328 39.79871 33.36938 2.24883 13.33257-1.19609 49.44281-6.15916 64.56136-2.69644 8.21391-9.33846 15.72641-15.33793 17.34806-2.2 0.59466-11.425 3.10408-20.5 5.57648-31.14727 8.48581-45.48675 10.28784-57.04944 7.16936z"/>
        <path style="fill:#000000" id="path469" d="m104.94424 276.56395c-5.612016-1.16945-27.929464-6.98187-46.94424-12.22629-14.589743-4.02397-20.680545-19.31719-23.131599-58.08048-1.911453-30.22952 2.097841-40.224 19.880937-49.55978 15.036318-7.89377 26.834639-10.69448 45.059109-10.69622 16.933963-2e-3 24.991803 1.35656 36.234253 6.10741 8.59279 3.63117 9.88084 4.52811 12.93971 9.01065 2.67696 3.92289 3.48797 6.23557 3.82613 10.91059 0.47031 6.50194 1.12125 5.50488-10.05854 15.40692-1.5125 1.33964-2.75 3.35643-2.75 4.48176 0 1.12534 3.44484 10.71654 7.6552 21.31378 10.71001 26.95651 11.83459 32.38805 8.81269 42.5639-2.05707 6.9269-10.49461 16.0966-17.70743 19.24396-6.57988 2.87118-23.65744 3.64071-33.81622 1.5238z"/>
    </g>
</svg>
