<svg id="svg381" version="1.1" viewBox="0 0 508 338" xmlns="http://www.w3.org/2000/svg">
    <g id="g387">
        <path style="fill:#000000" id="path485" d="m383.53404 140.99805c-3.02382-1.10029-7.05594-5.79455-7.94412-9.24866-0.50173-1.9512-1.41823-7.14763-2.03667-11.54763-2.75771-19.62005-4.35195-27.239352-6.53215-31.218742-1.27122-2.3203-2.85756-5.920302-3.52518-7.999997-0.66763-2.079694-2.13923-5.806263-3.27024-8.281263s-2.23873-7.2-2.46161-10.5c-0.52796-7.817031 1.99395-11.861094 9.84734-15.790884 4.79099-2.397386 5.98944-2.635156 8.5-1.686382 8.07159 3.050363 11.96209 11.968943 12.9695 29.73126 0.60759 10.712886 3.82743 29.652448 7.59046 44.648218 4.12251 16.42831 2.16268 22.678-7.06164 22.51884-2.51663-0.0434-5.25069-0.32456-6.07569-0.62476z"/>
    </g>
</svg>
