<svg id="svg381" version="1.1" viewBox="0 0 508 338" xmlns="http://www.w3.org/2000/svg">
    <g id="g387">
        <path style="fill:#000000" id="path481" d="m149.3872 156.25c-7.7259-4.38745-7.9176-4.68966-6.68933-10.54548 0.61317-2.92331 3.40699-10.12688 6.20849-16.00795 2.8015-5.88106 5.09364-10.96402 5.09364-11.29545s2.24409-5.04348 4.98686-10.47121c2.74278-5.42774 5.91932-13.348195 7.05899-17.601009 4.02318-15.012955 8.24986-21.678053 14.49033-22.849946 6.38944-1.199868 13.39048 7.009689 13.44186 15.762196 0.0464 7.907515-9.79286 31.228679-21.20439 50.258849-2.96829 4.95-6.68874 11.25-8.26767 14-3.53692 6.1602-7.75052 10.5-10.19466 10.5-1.01339 0-3.22924-0.7875-4.92412-1.75z"/>
    </g>
</svg>
