<svg id="svg381" version="1.1" viewBox="0 0 508 338" xmlns="http://www.w3.org/2000/svg">
    <g id="g387">
        <path style="fill:#000000" id="path471" d="m324.80331 252.29158c-2.32691-0.75209-8.17691-3.39729-13-5.87821-10.13229-5.21189-13.49932-6.285-25.60464-8.16047-14.77848-2.28963-21.9324-8.62131-22.09495-19.55548-0.0927-6.23326 1.71686-9.28483 7.09992-11.97326 9.96426-4.97639 18.30315-3.36811 32.37152 6.24331 15.72388 10.74247 14.38386 10.19206 25.33315 10.40563 9.28832 0.18117 10.04492 0.35609 12.75 2.94772 2.3475 2.24904 2.87471 3.59327 2.87015 7.31803-8e-3 6.71534-1.73577 11.81341-5.3175 15.692-3.75709 4.06849-8.17286 4.97592-14.40765 2.96073z"/>
    </g>
</svg>
